<svg width="420" height="270" viewBox="0 0 420 270" xmlns="http://www.w3.org/2000/svg"><rect x="0.5" y="0.5" width="419" height="269" rx="12" fill="#282a36" stroke="#6272a4" stroke-width="1"/><g><text x="25" y="38" font-size="16" font-weight="700" fill="#f8f8f2" font-family="'Segoe UI', Ubuntu, sans-serif">The Octocat</text><text x="25" y="56" font-size="12" fill="#6272a4" font-family="'Segoe UI', Ubuntu, sans-serif">@octocat · member since 2011</text></g><g><g transform="translate(25,88)"><g transform="translate(0,-6)"><svg width="16" height="16" viewBox="0 0 16 16" color="#bd93f9"><path d="M8 .25a.75.75 0 0 1 .673.418l1.882 3.815 4.21.612a.75.75 0 0 1 .416 1.279l-3.046 2.97.719 4.192a.75.75 0 0 1-1.088.791L8 12.347l-3.766 1.98a.75.75 0 0 1-1.088-.79l.72-4.194L.818 6.374a.75.75 0 0 1 .416-1.28l4.21-.611L7.327.668A.75.75 0 0 1 8 .25Z" fill="currentColor"/></svg></g><text x="22" y="0" font-size="13" fill="#6272a4" font-family="'Segoe UI', Ubuntu, sans-serif">Stars</text><text x="22" y="20" font-size="18" fill="#f8f8f2" font-weight="700" font-family="'Segoe UI', Ubuntu, sans-serif">1,247</text></g><g transform="translate(145,88)"><g transform="translate(0,-6)"><svg width="16" height="16" viewBox="0 0 16 16" color="#bd93f9"><path d="M5 3.25a.75.75 0 1 1-1.5 0 .75.75 0 0 1 1.5 0Zm0 2.122a2.25 2.25 0 1 0-1.5 0v.878A2.25 2.25 0 0 0 5.75 8.5h1.5v2.128a2.251 2.251 0 1 0 1.5 0V8.5h1.5a2.25 2.25 0 0 0 2.25-2.25v-.878a2.25 2.25 0 1 0-1.5 0v.878a.75.75 0 0 1-.75.75h-4.5A.75.75 0 0 1 5 6.25v-.878Zm3.75 7.378a.75.75 0 1 1-1.5 0 .75.75 0 0 1 1.5 0Zm3-8.75a.75.75 0 1 0 0-1.5.75.75 0 0 0 0 1.5Z" fill="currentColor"/></svg></g><text x="22" y="0" font-size="13" fill="#6272a4" font-family="'Segoe UI', Ubuntu, sans-serif">Forks</text><text x="22" y="20" font-size="18" fill="#f8f8f2" font-weight="700" font-family="'Segoe UI', Ubuntu, sans-serif">389</text></g><g transform="translate(265,88)"><g transform="translate(0,-6)"><svg width="16" height="16" viewBox="0 0 16 16" color="#bd93f9"><path d="M2 2.5A2.5 2.5 0 0 1 4.5 0h8.75a.75.75 0 0 1 .75.75v12.5a.75.75 0 0 1-.75.75h-2.5a.75.75 0 0 1 0-1.5h1.75v-2h-8a1 1 0 0 0-.714 1.7.75.75 0 1 1-1.072 1.05A2.495 2.495 0 0 1 2 11.5Zm10.5-1h-8a1 1 0 0 0-1 1v6.708A2.486 2.486 0 0 1 4.5 9h8ZM5 12.25a.25.25 0 0 1 .25-.25h3.5a.25.25 0 0 1 .25.25v3.25a.25.25 0 0 1-.4.2l-1.45-1.087a.25.25 0 0 0-.3 0L5.4 15.7a.25.25 0 0 1-.4-.2Z" fill="currentColor"/></svg></g><text x="22" y="0" font-size="13" fill="#6272a4" font-family="'Segoe UI', Ubuntu, sans-serif">Repos</text><text x="22" y="20" font-size="18" fill="#f8f8f2" font-weight="700" font-family="'Segoe UI', Ubuntu, sans-serif">42</text></g></g><g><g transform="translate(25,138)"><g transform="translate(0,-6)"><svg width="16" height="16" viewBox="0 0 16 16" color="#bd93f9"><path d="M2 5.5a3.5 3.5 0 1 1 5.898 2.549 5.508 5.508 0 0 1 3.034 4.084.75.75 0 1 1-1.482.235 4.001 4.001 0 0 0-6.9 0 .75.75 0 0 1-1.482-.236A5.507 5.507 0 0 1 4.6 8.049 3.5 3.5 0 0 1 2 5.5ZM5.5 4a2 2 0 1 0 0 4 2 2 0 0 0 0-4Zm5.5.5a2.5 2.5 0 1 1 4.927.87A4.503 4.503 0 0 1 16 11.5a.75.75 0 0 1-1.5 0 3.001 3.001 0 0 0-2.64-2.977.75.75 0 0 1-.16-1.46A1 1 0 1 0 11 6.5a.75.75 0 0 1-.75-.75c0-.69.56-1.25 1.25-1.25Z" fill="currentColor"/></svg></g><text x="22" y="0" font-size="13" fill="#6272a4" font-family="'Segoe UI', Ubuntu, sans-serif">Followers</text><text x="22" y="20" font-size="18" fill="#f8f8f2" font-weight="700" font-family="'Segoe UI', Ubuntu, sans-serif">8,930</text></g></g><g><text x="25" y="188" font-size="12" fill="#6272a4" font-weight="600" font-family="'Segoe UI', Ubuntu, sans-serif">Top Languages</text><rect x="25" y="198" width="370" height="8" fill="#44475a" rx="4"/><rect x="25" y="198" width="133.2" height="8" fill="#3178c6" rx="4"/><rect x="158.2" y="198" width="88.8" height="8" fill="#3572A5" rx="4"/><rect x="247" y="198" width="62.900000000000006" height="8" fill="#dea584" rx="4"/><rect x="309.9" y="198" width="44.4" height="8" fill="#00ADD8" rx="4"/><rect x="354.29999999999995" y="198" width="44.4" height="8" fill="#89e051" rx="4"/><g transform="translate(25,220)"><circle cx="5" cy="5" r="5" fill="#3178c6"/><text x="14" y="9" font-size="11" fill="#6272a4" font-family="'Segoe UI', Ubuntu, sans-serif">TypeScript 36%</text></g><g transform="translate(140,220)"><circle cx="5" cy="5" r="5" fill="#3572A5"/><text x="14" y="9" font-size="11" fill="#6272a4" font-family="'Segoe UI', Ubuntu, sans-serif">Python 24%</text></g><g transform="translate(225,220)"><circle cx="5" cy="5" r="5" fill="#dea584"/><text x="14" y="9" font-size="11" fill="#6272a4" font-family="'Segoe UI', Ubuntu, sans-serif">Rust 17%</text></g><g transform="translate(295,220)"><circle cx="5" cy="5" r="5" fill="#00ADD8"/><text x="14" y="9" font-size="11" fill="#6272a4" font-family="'Segoe UI', Ubuntu, sans-serif">Go 12%</text></g><g transform="translate(25,240)"><circle cx="5" cy="5" r="5" fill="#89e051"/><text x="14" y="9" font-size="11" fill="#6272a4" font-family="'Segoe UI', Ubuntu, sans-serif">Shell 12%</text></g></g></svg>